<?xml version="1.0" encoding="utf-8"?>
<!-- Generator: Adobe Illustrator 16.0.0, SVG Export Plug-In . SVG Version: 6.00 Build 0)  -->
<!DOCTYPE svg PUBLIC "-//W3C//DTD SVG 1.1//EN" "http://www.w3.org/Graphics/SVG/1.1/DTD/svg11.dtd">
<svg version="1.1" id="Layer_1" xmlns="http://www.w3.org/2000/svg" xmlns:xlink="http://www.w3.org/1999/xlink" x="0px" y="0px"
	 width="86.026px" height="77.543px" viewBox="7.976 10.164 86.026 77.543" enable-background="new 7.976 10.164 86.026 77.543"
	 xml:space="preserve">
<g id="XMLID_1_">
	<g>
		<path fill="#F7F7F7" d="M85.5,25.27c0,0-2.48,2.77-5.08,6.73c0.61,1.75,1.04,3.67,1.26,5.78c2.801,27.34-15.3,41.43-33.26,41.43
			c-14.14,0-28.2-8.72-31.94-26.56c0,0,8.61,4.09,16.86,4.779c-3.06-3.89-5.39-8.709-6.61-14.53c0,0,10.26,4.87,19.12,4.87
			c0.75,0,1.49-0.03,2.21-0.11c0.36-2.59,0.22-5.8-0.58-9.76c-2.55-12.6,5.66-19.23,14.69-19.23c5.26,0,10.79,2.25,14.65,6.88
			c1.75-0.27,3.58-0.41,5.479-0.41C83.35,25.14,84.41,25.19,85.5,25.27z"/>
		<path d="M92.93,22.31c1.13,2.82,0.561,6.04-1.47,8.3c-0.01,0.01-1.01,1.14-2.35,2.93c0.229,1.11,0.409,2.26,0.52,3.42
			c1.91,18.65-4.71,30.34-10.6,36.87c-7.681,8.5-18.83,13.38-30.61,13.38c-9.02,0-17.81-2.93-24.74-8.24
			C16,73.08,10.8,64.54,8.65,54.3c-0.63-2.979,0.49-6.05,2.88-7.93c1.43-1.13,3.18-1.72,4.95-1.72c0.85,0,1.71,0.14,2.53,0.41
			c-0.04-0.17-0.07-0.34-0.11-0.51c-0.63-2.98,0.49-6.05,2.88-7.93c1.43-1.14,3.18-1.72,4.95-1.72c1.16,0,2.34,0.26,3.43,0.77
			c1.57,0.75,5.34,2.27,9.36,3.23c-1.41-7.69,0.16-14.78,4.44-20.02c4.27-5.22,10.91-8.22,18.21-8.22c6.54,0,12.76,2.35,17.63,6.55
			c0.83-0.05,1.67-0.07,2.5-0.07c1.271,0,2.561,0.05,3.851,0.16C89.18,17.54,91.8,19.48,92.93,22.31z M80.42,32
			c2.6-3.96,5.08-6.73,5.08-6.73c-1.09-0.08-2.15-0.13-3.2-0.13c-1.899,0-3.729,0.14-5.479,0.41c-3.86-4.63-9.391-6.88-14.65-6.88
			c-9.03,0-17.24,6.63-14.69,19.23c0.8,3.96,0.94,7.17,0.58,9.76c-0.72,0.08-1.46,0.11-2.21,0.11c-8.86,0-19.12-4.87-19.12-4.87
			c1.22,5.82,3.55,10.64,6.61,14.53c-8.25-0.689-16.86-4.779-16.86-4.779c3.74,17.84,17.8,26.56,31.94,26.56
			c17.96,0,36.061-14.09,33.26-41.43C81.46,35.67,81.03,33.75,80.42,32z"/>
	</g>
	<g>
		<path fill="none" stroke="#F7F7F7" stroke-miterlimit="10" d="M8.65,54.3C10.8,64.54,16,73.08,23.68,78.97
			c6.93,5.311,15.72,8.24,24.74,8.24c11.78,0,22.93-4.88,30.61-13.38c5.89-6.53,12.51-18.22,10.6-36.87
			c-0.11-1.16-0.29-2.31-0.52-3.42c1.34-1.79,2.34-2.92,2.35-2.93c2.03-2.26,2.6-5.48,1.47-8.3c-1.13-2.83-3.75-4.77-6.779-5.01
			c-1.29-0.11-2.58-0.16-3.851-0.16c-0.83,0-1.67,0.02-2.5,0.07c-4.87-4.2-11.09-6.55-17.63-6.55c-7.3,0-13.94,3-18.21,8.22
			c-4.28,5.24-5.85,12.33-4.44,20.02c-4.02-0.96-7.79-2.48-9.36-3.23c-1.09-0.51-2.27-0.77-3.43-0.77c-1.77,0-3.52,0.58-4.95,1.72
			c-2.39,1.88-3.51,4.95-2.88,7.93c0.04,0.17,0.07,0.34,0.11,0.51c-0.82-0.27-1.68-0.41-2.53-0.41c-1.77,0-3.52,0.59-4.95,1.72
			C9.14,48.25,8.02,51.32,8.65,54.3z"/>
		<path fill="none" stroke="#F7F7F7" stroke-miterlimit="10" d="M16.48,52.65c0,0,8.61,4.09,16.86,4.779
			c-3.06-3.89-5.39-8.709-6.61-14.53c0,0,10.26,4.87,19.12,4.87c0.75,0,1.49-0.03,2.21-0.11c0.36-2.59,0.22-5.8-0.58-9.76
			c-2.55-12.6,5.66-19.23,14.69-19.23c5.26,0,10.79,2.25,14.65,6.88c1.75-0.27,3.58-0.41,5.479-0.41c1.05,0,2.11,0.05,3.2,0.13
			c0,0-2.48,2.77-5.08,6.73c0.61,1.75,1.04,3.67,1.26,5.78c2.801,27.34-15.3,41.43-33.26,41.43C34.28,79.21,20.22,70.49,16.48,52.65
			z"/>
	</g>
</g>
</svg>
