<?xml version="1.0" encoding="utf-8"?>
<!-- Generator: Adobe Illustrator 16.0.0, SVG Export Plug-In . SVG Version: 6.00 Build 0)  -->
<!DOCTYPE svg PUBLIC "-//W3C//DTD SVG 1.1//EN" "http://www.w3.org/Graphics/SVG/1.1/DTD/svg11.dtd">
<svg version="1.1" id="Layer_1" xmlns="http://www.w3.org/2000/svg" xmlns:xlink="http://www.w3.org/1999/xlink" x="0px" y="0px"
	 width="27.873px" height="18.753px" viewBox="2.063 6.624 27.873 18.753" enable-background="new 2.063 6.624 27.873 18.753"
	 xml:space="preserve">
<g id="XMLID_1_">
	<g>
		<path fill="#F7F7F7" d="M27,16.81c0.58,0.69,0.94,1.591,0.94,2.57c-0.011,2.2-1.79,3.99-4,4H8.06c-1.1,0-2.1-0.46-2.82-1.18
			c-0.73-0.72-1.18-1.72-1.18-2.82c0-1,0.36-1.899,0.96-2.6c0.6-0.69,1.44-1.18,2.39-1.34c0.27-0.04,0.5-0.19,0.66-0.41
			c0.12-0.17,0.18-0.37,0.18-0.57c0-0.06-0.01-0.13-0.02-0.19c-0.03-0.15-0.04-0.29-0.04-0.43c0-0.61,0.25-1.16,0.65-1.56
			c0.4-0.4,0.96-0.65,1.57-0.65c0.65,0,1.21,0.27,1.63,0.73c0.19,0.21,0.47,0.33,0.75,0.33c0.06,0,0.12-0.01,0.18-0.02
			c0.34-0.07,0.62-0.31,0.74-0.63c0.75-1.99,2.66-3.41,4.9-3.41c0,0,0.01,0,0.02,0c1.45,0,2.75,0.59,3.71,1.54
			c0.94,0.95,1.54,2.26,1.54,3.71c0,0.16-0.01,0.32-0.03,0.49c-0.05,0.52,0.301,0.98,0.82,1.08C25.6,15.62,26.41,16.11,27,16.81z"/>
		<path d="M23.94,23.38c2.21-0.01,3.989-1.8,4-4c0-0.979-0.36-1.88-0.94-2.57c-0.59-0.7-1.4-1.189-2.33-1.359
			c-0.52-0.1-0.87-0.56-0.82-1.08c0.021-0.17,0.03-0.33,0.03-0.49c0-1.45-0.6-2.76-1.54-3.71c-0.96-0.95-2.26-1.54-3.71-1.54
			c-0.01,0-0.02,0-0.02,0c-2.24,0-4.15,1.42-4.9,3.41c-0.12,0.32-0.4,0.56-0.74,0.63c-0.06,0.01-0.12,0.02-0.18,0.02
			c-0.28,0-0.56-0.12-0.75-0.33c-0.42-0.46-0.98-0.73-1.63-0.73c-0.61,0-1.17,0.25-1.57,0.65c-0.4,0.4-0.65,0.95-0.65,1.56
			c0,0.14,0.01,0.28,0.04,0.43c0.01,0.06,0.02,0.13,0.02,0.19c0,0.2-0.06,0.4-0.18,0.57c-0.16,0.22-0.39,0.37-0.66,0.41
			c-0.95,0.16-1.79,0.65-2.39,1.34c-0.6,0.7-0.96,1.6-0.96,2.6c0,1.101,0.45,2.101,1.18,2.82c0.72,0.72,1.72,1.18,2.82,1.18H23.94z
			 M29.94,19.37c0,1.649-0.671,3.149-1.761,4.24c-1.08,1.09-2.58,1.76-4.239,1.76H8.06v0.01c-3.31,0-6-2.689-6-6
			c0-1.34,0.44-2.56,1.17-3.55S5,14.08,6.19,13.69c0.04-1.13,0.53-2.15,1.29-2.88c0.76-0.73,1.79-1.19,2.93-1.19
			c0.72,0,1.41,0.19,2.01,0.52c0.63-1.05,1.52-1.93,2.59-2.55c1.06-0.61,2.29-0.97,3.61-0.97c1.979,0,3.76,0.8,5.07,2.07
			c1.31,1.28,2.13,3.05,2.18,5.01c1.18,0.4,2.189,1.16,2.92,2.15C29.51,16.84,29.94,18.06,29.94,19.37z"/>
	</g>
	<g>
	</g>
</g>
</svg>
